{
	"asset":{
		"generator":"Khronos glTF Blender I/O v4.5.49",
		"version":"2.0"
	},
	"scene":0,
	"scenes":[
		{
			"name":"Scene",
			"nodes":[
				0
			]
		}
	],
	"nodes":[
		{
			"mesh":0,
			"name":"base"
		}
	],
	"meshes":[
		{
			"name":"base",
			"primitives":[
				{
					"attributes":{
						"POSITION":0,
						"NORMAL":1
					},
					"indices":2
				}
			]
		}
	],
	"accessors":[
		{
			"bufferView":0,
			"componentType":5126,
			"count":457216,
			"max":[
				40,
				136,
				59.5
			],
			"min":[
				-73.92158508300781,
				-4.400000095367432,
				-59.5
			],
			"type":"VEC3"
		},
		{
			"bufferView":1,
			"componentType":5126,
			"count":457216,
			"type":"VEC3"
		},
		{
			"bufferView":2,
			"componentType":5125,
			"count":627687,
			"type":"SCALAR"
		}
	],
	"bufferViews":[
		{
			"buffer":0,
			"byteLength":5486592,
			"byteOffset":0,
			"target":34962
		},
		{
			"buffer":0,
			"byteLength":5486592,
			"byteOffset":5486592,
			"target":34962
		},
		{
			"buffer":0,
			"byteLength":2510748,
			"byteOffset":10973184,
			"target":34963
		}
	],
	"buffers":[
		{
			"byteLength":13483932,
			"uri":"base.bin"
		}
	]
}
