{
	"asset":{
		"generator":"Khronos glTF Blender I/O v4.5.49",
		"version":"2.0"
	},
	"scene":0,
	"scenes":[
		{
			"name":"Scene",
			"nodes":[
				0
			]
		}
	],
	"nodes":[
		{
			"mesh":0,
			"name":"body"
		}
	],
	"meshes":[
		{
			"name":"body",
			"primitives":[
				{
					"attributes":{
						"POSITION":0,
						"NORMAL":1
					},
					"indices":2
				}
			]
		}
	],
	"accessors":[
		{
			"bufferView":0,
			"componentType":5126,
			"count":397354,
			"max":[
				70.5,
				140.89999389648438,
				64.4000015258789
			],
			"min":[
				-104,
				-4.400000095367432,
				-64.4000015258789
			],
			"type":"VEC3"
		},
		{
			"bufferView":1,
			"componentType":5126,
			"count":397354,
			"type":"VEC3"
		},
		{
			"bufferView":2,
			"componentType":5125,
			"count":550326,
			"type":"SCALAR"
		}
	],
	"bufferViews":[
		{
			"buffer":0,
			"byteLength":4768248,
			"byteOffset":0,
			"target":34962
		},
		{
			"buffer":0,
			"byteLength":4768248,
			"byteOffset":4768248,
			"target":34962
		},
		{
			"buffer":0,
			"byteLength":2201304,
			"byteOffset":9536496,
			"target":34963
		}
	],
	"buffers":[
		{
			"byteLength":11737800,
			"uri":"body.bin"
		}
	]
}
