{
	"asset":{
		"generator":"Khronos glTF Blender I/O v4.5.49",
		"version":"2.0"
	},
	"scene":0,
	"scenes":[
		{
			"name":"Scene",
			"nodes":[
				0
			]
		}
	],
	"nodes":[
		{
			"mesh":0,
			"name":"h2"
		}
	],
	"meshes":[
		{
			"name":"h2",
			"primitives":[
				{
					"attributes":{
						"POSITION":0,
						"NORMAL":1
					},
					"indices":2
				}
			]
		}
	],
	"accessors":[
		{
			"bufferView":0,
			"componentType":5126,
			"count":70872,
			"max":[
				28.25,
				66.75,
				66
			],
			"min":[
				-16.25,
				-11.25,
				-28
			],
			"type":"VEC3"
		},
		{
			"bufferView":1,
			"componentType":5126,
			"count":70872,
			"type":"VEC3"
		},
		{
			"bufferView":2,
			"componentType":5125,
			"count":97482,
			"type":"SCALAR"
		}
	],
	"bufferViews":[
		{
			"buffer":0,
			"byteLength":850464,
			"byteOffset":0,
			"target":34962
		},
		{
			"buffer":0,
			"byteLength":850464,
			"byteOffset":850464,
			"target":34962
		},
		{
			"buffer":0,
			"byteLength":389928,
			"byteOffset":1700928,
			"target":34963
		}
	],
	"buffers":[
		{
			"byteLength":2090856,
			"uri":"h2.bin"
		}
	]
}
