{
	"asset":{
		"generator":"Khronos glTF Blender I/O v4.5.49",
		"version":"2.0"
	},
	"scene":0,
	"scenes":[
		{
			"name":"Scene",
			"nodes":[
				0
			]
		}
	],
	"nodes":[
		{
			"mesh":0,
			"name":"la1"
		}
	],
	"meshes":[
		{
			"name":"la1",
			"primitives":[
				{
					"attributes":{
						"POSITION":0,
						"NORMAL":1
					},
					"indices":2
				}
			]
		}
	],
	"accessors":[
		{
			"bufferView":0,
			"componentType":5126,
			"count":17386,
			"max":[
				21,
				12.5,
				1.7763568394002505e-14
			],
			"min":[
				-21,
				-20,
				-31
			],
			"type":"VEC3"
		},
		{
			"bufferView":1,
			"componentType":5126,
			"count":17386,
			"type":"VEC3"
		},
		{
			"bufferView":2,
			"componentType":5123,
			"count":29868,
			"type":"SCALAR"
		}
	],
	"bufferViews":[
		{
			"buffer":0,
			"byteLength":208632,
			"byteOffset":0,
			"target":34962
		},
		{
			"buffer":0,
			"byteLength":208632,
			"byteOffset":208632,
			"target":34962
		},
		{
			"buffer":0,
			"byteLength":59736,
			"byteOffset":417264,
			"target":34963
		}
	],
	"buffers":[
		{
			"byteLength":477000,
			"uri":"la1.bin"
		}
	]
}
