{
	"asset":{
		"generator":"Khronos glTF Blender I/O v4.5.49",
		"version":"2.0"
	},
	"scene":0,
	"scenes":[
		{
			"name":"Scene",
			"nodes":[
				0
			]
		}
	],
	"nodes":[
		{
			"mesh":0,
			"name":"la2"
		}
	],
	"meshes":[
		{
			"name":"la2",
			"primitives":[
				{
					"attributes":{
						"POSITION":0,
						"NORMAL":1
					},
					"indices":2
				}
			]
		}
	],
	"accessors":[
		{
			"bufferView":0,
			"componentType":5126,
			"count":129119,
			"max":[
				4.400000095367432,
				15.75,
				11.25
			],
			"min":[
				-38,
				-14.350000381469727,
				-101.6500015258789
			],
			"type":"VEC3"
		},
		{
			"bufferView":1,
			"componentType":5126,
			"count":129119,
			"type":"VEC3"
		},
		{
			"bufferView":2,
			"componentType":5125,
			"count":173196,
			"type":"SCALAR"
		}
	],
	"bufferViews":[
		{
			"buffer":0,
			"byteLength":1549428,
			"byteOffset":0,
			"target":34962
		},
		{
			"buffer":0,
			"byteLength":1549428,
			"byteOffset":1549428,
			"target":34962
		},
		{
			"buffer":0,
			"byteLength":692784,
			"byteOffset":3098856,
			"target":34963
		}
	],
	"buffers":[
		{
			"byteLength":3791640,
			"uri":"la2.bin"
		}
	]
}
