{
	"asset":{
		"generator":"Khronos glTF Blender I/O v4.5.49",
		"version":"2.0"
	},
	"scene":0,
	"scenes":[
		{
			"name":"Scene",
			"nodes":[
				0
			]
		}
	],
	"nodes":[
		{
			"mesh":0,
			"name":"la3"
		}
	],
	"meshes":[
		{
			"name":"la3",
			"primitives":[
				{
					"attributes":{
						"POSITION":0,
						"NORMAL":1
					},
					"indices":2
				}
			]
		}
	],
	"accessors":[
		{
			"bufferView":0,
			"componentType":5126,
			"count":38680,
			"max":[
				2,
				15,
				2.5
			],
			"min":[
				-40,
				-15,
				-146.50985717773438
			],
			"type":"VEC3"
		},
		{
			"bufferView":1,
			"componentType":5126,
			"count":38680,
			"type":"VEC3"
		},
		{
			"bufferView":2,
			"componentType":5123,
			"count":62772,
			"type":"SCALAR"
		}
	],
	"bufferViews":[
		{
			"buffer":0,
			"byteLength":464160,
			"byteOffset":0,
			"target":34962
		},
		{
			"buffer":0,
			"byteLength":464160,
			"byteOffset":464160,
			"target":34962
		},
		{
			"buffer":0,
			"byteLength":125544,
			"byteOffset":928320,
			"target":34963
		}
	],
	"buffers":[
		{
			"byteLength":1053864,
			"uri":"la3.bin"
		}
	]
}
