{
	"asset":{
		"generator":"Khronos glTF Blender I/O v4.5.49",
		"version":"2.0"
	},
	"scene":0,
	"scenes":[
		{
			"name":"Scene",
			"nodes":[
				0
			]
		}
	],
	"nodes":[
		{
			"mesh":0,
			"name":"ll1"
		}
	],
	"meshes":[
		{
			"name":"ll1",
			"primitives":[
				{
					"attributes":{
						"POSITION":0,
						"NORMAL":1
					},
					"indices":2
				}
			]
		}
	],
	"accessors":[
		{
			"bufferView":0,
			"componentType":5126,
			"count":13501,
			"max":[
				21,
				0,
				12.5
			],
			"min":[
				-24,
				-31,
				-12.5
			],
			"type":"VEC3"
		},
		{
			"bufferView":1,
			"componentType":5126,
			"count":13501,
			"type":"VEC3"
		},
		{
			"bufferView":2,
			"componentType":5123,
			"count":25536,
			"type":"SCALAR"
		}
	],
	"bufferViews":[
		{
			"buffer":0,
			"byteLength":162012,
			"byteOffset":0,
			"target":34962
		},
		{
			"buffer":0,
			"byteLength":162012,
			"byteOffset":162012,
			"target":34962
		},
		{
			"buffer":0,
			"byteLength":51072,
			"byteOffset":324024,
			"target":34963
		}
	],
	"buffers":[
		{
			"byteLength":375096,
			"uri":"ll1.bin"
		}
	]
}
