{
	"asset":{
		"generator":"Khronos glTF Blender I/O v4.5.49",
		"version":"2.0"
	},
	"scene":0,
	"scenes":[
		{
			"name":"Scene",
			"nodes":[
				0
			]
		}
	],
	"nodes":[
		{
			"mesh":0,
			"name":"ll4"
		}
	],
	"meshes":[
		{
			"name":"ll4",
			"primitives":[
				{
					"attributes":{
						"POSITION":0,
						"NORMAL":1
					},
					"indices":2
				}
			]
		}
	],
	"accessors":[
		{
			"bufferView":0,
			"componentType":5126,
			"count":40125,
			"max":[
				15,
				2.5,
				42
			],
			"min":[
				-15,
				-112.5,
				-2
			],
			"type":"VEC3"
		},
		{
			"bufferView":1,
			"componentType":5126,
			"count":40125,
			"type":"VEC3"
		},
		{
			"bufferView":2,
			"componentType":5123,
			"count":69036,
			"type":"SCALAR"
		}
	],
	"bufferViews":[
		{
			"buffer":0,
			"byteLength":481500,
			"byteOffset":0,
			"target":34962
		},
		{
			"buffer":0,
			"byteLength":481500,
			"byteOffset":481500,
			"target":34962
		},
		{
			"buffer":0,
			"byteLength":138072,
			"byteOffset":963000,
			"target":34963
		}
	],
	"buffers":[
		{
			"byteLength":1101072,
			"uri":"ll4.bin"
		}
	]
}
