{
	"asset":{
		"generator":"Khronos glTF Blender I/O v4.5.49",
		"version":"2.0"
	},
	"scene":0,
	"scenes":[
		{
			"name":"Scene",
			"nodes":[
				0
			]
		}
	],
	"nodes":[
		{
			"mesh":0,
			"name":"ll5"
		}
	],
	"meshes":[
		{
			"name":"ll5",
			"primitives":[
				{
					"attributes":{
						"POSITION":0,
						"NORMAL":1
					},
					"indices":2
				}
			]
		}
	],
	"accessors":[
		{
			"bufferView":0,
			"componentType":5126,
			"count":210849,
			"max":[
				18.899999618530273,
				35.25,
				38
			],
			"min":[
				-60.099998474121094,
				-11.25,
				-4.400000095367432
			],
			"type":"VEC3"
		},
		{
			"bufferView":1,
			"componentType":5126,
			"count":210849,
			"type":"VEC3"
		},
		{
			"bufferView":2,
			"componentType":5125,
			"count":262770,
			"type":"SCALAR"
		}
	],
	"bufferViews":[
		{
			"buffer":0,
			"byteLength":2530188,
			"byteOffset":0,
			"target":34962
		},
		{
			"buffer":0,
			"byteLength":2530188,
			"byteOffset":2530188,
			"target":34962
		},
		{
			"buffer":0,
			"byteLength":1051080,
			"byteOffset":5060376,
			"target":34963
		}
	],
	"buffers":[
		{
			"byteLength":6111456,
			"uri":"ll5.bin"
		}
	]
}
