{
	"asset":{
		"generator":"Khronos glTF Blender I/O v4.5.49",
		"version":"2.0"
	},
	"scene":0,
	"scenes":[
		{
			"name":"Scene",
			"nodes":[
				0
			]
		}
	],
	"nodes":[
		{
			"mesh":0,
			"name":"ra3"
		}
	],
	"meshes":[
		{
			"name":"ra3",
			"primitives":[
				{
					"attributes":{
						"POSITION":0,
						"NORMAL":1
					},
					"indices":2
				}
			]
		}
	],
	"accessors":[
		{
			"bufferView":0,
			"componentType":5126,
			"count":38655,
			"max":[
				2,
				15,
				146.50985717773438
			],
			"min":[
				-40,
				-15,
				-2.5
			],
			"type":"VEC3"
		},
		{
			"bufferView":1,
			"componentType":5126,
			"count":38655,
			"type":"VEC3"
		},
		{
			"bufferView":2,
			"componentType":5123,
			"count":62772,
			"type":"SCALAR"
		}
	],
	"bufferViews":[
		{
			"buffer":0,
			"byteLength":463860,
			"byteOffset":0,
			"target":34962
		},
		{
			"buffer":0,
			"byteLength":463860,
			"byteOffset":463860,
			"target":34962
		},
		{
			"buffer":0,
			"byteLength":125544,
			"byteOffset":927720,
			"target":34963
		}
	],
	"buffers":[
		{
			"byteLength":1053264,
			"uri":"ra3.bin"
		}
	]
}
