{
	"asset":{
		"generator":"Khronos glTF Blender I/O v4.5.49",
		"version":"2.0"
	},
	"scene":0,
	"scenes":[
		{
			"name":"Scene",
			"nodes":[
				0
			]
		}
	],
	"nodes":[
		{
			"mesh":0,
			"name":"rl2"
		}
	],
	"meshes":[
		{
			"name":"rl2",
			"primitives":[
				{
					"attributes":{
						"POSITION":0,
						"NORMAL":1
					},
					"indices":2
				}
			]
		}
	],
	"accessors":[
		{
			"bufferView":0,
			"componentType":5126,
			"count":212999,
			"max":[
				43.75,
				11.25,
				23.399999618530273
			],
			"min":[
				-36,
				-35.25,
				-19
			],
			"type":"VEC3"
		},
		{
			"bufferView":1,
			"componentType":5126,
			"count":212999,
			"type":"VEC3"
		},
		{
			"bufferView":2,
			"componentType":5125,
			"count":266346,
			"type":"SCALAR"
		}
	],
	"bufferViews":[
		{
			"buffer":0,
			"byteLength":2555988,
			"byteOffset":0,
			"target":34962
		},
		{
			"buffer":0,
			"byteLength":2555988,
			"byteOffset":2555988,
			"target":34962
		},
		{
			"buffer":0,
			"byteLength":1065384,
			"byteOffset":5111976,
			"target":34963
		}
	],
	"buffers":[
		{
			"byteLength":6177360,
			"uri":"rl2.bin"
		}
	]
}
