{
	"asset":{
		"generator":"Khronos glTF Blender I/O v4.5.49",
		"version":"2.0"
	},
	"scene":0,
	"scenes":[
		{
			"name":"Scene",
			"nodes":[
				0
			]
		}
	],
	"nodes":[
		{
			"mesh":0,
			"name":"rl3"
		}
	],
	"meshes":[
		{
			"name":"rl3",
			"primitives":[
				{
					"attributes":{
						"POSITION":0,
						"NORMAL":1
					},
					"indices":2
				}
			]
		}
	],
	"accessors":[
		{
			"bufferView":0,
			"componentType":5126,
			"count":88315,
			"max":[
				15.850000381469727,
				2.5,
				4.400000095367432
			],
			"min":[
				-15,
				-121.4000015258789,
				-42
			],
			"type":"VEC3"
		},
		{
			"bufferView":1,
			"componentType":5126,
			"count":88315,
			"type":"VEC3"
		},
		{
			"bufferView":2,
			"componentType":5125,
			"count":127164,
			"type":"SCALAR"
		}
	],
	"bufferViews":[
		{
			"buffer":0,
			"byteLength":1059780,
			"byteOffset":0,
			"target":34962
		},
		{
			"buffer":0,
			"byteLength":1059780,
			"byteOffset":1059780,
			"target":34962
		},
		{
			"buffer":0,
			"byteLength":508656,
			"byteOffset":2119560,
			"target":34963
		}
	],
	"buffers":[
		{
			"byteLength":2628216,
			"uri":"rl3.bin"
		}
	]
}
