{
	"asset":{
		"generator":"Khronos glTF Blender I/O v4.5.49",
		"version":"2.0"
	},
	"scene":0,
	"scenes":[
		{
			"name":"Scene",
			"nodes":[
				0
			]
		}
	],
	"nodes":[
		{
			"mesh":0,
			"name":"rl5"
		}
	],
	"meshes":[
		{
			"name":"rl5",
			"primitives":[
				{
					"attributes":{
						"POSITION":0,
						"NORMAL":1
					},
					"indices":2
				}
			]
		}
	],
	"accessors":[
		{
			"bufferView":0,
			"componentType":5126,
			"count":212970,
			"max":[
				19.649999618530273,
				35.25,
				4.400000095367432
			],
			"min":[
				-60.099998474121094,
				-11.25,
				-38
			],
			"type":"VEC3"
		},
		{
			"bufferView":1,
			"componentType":5126,
			"count":212970,
			"type":"VEC3"
		},
		{
			"bufferView":2,
			"componentType":5125,
			"count":266346,
			"type":"SCALAR"
		}
	],
	"bufferViews":[
		{
			"buffer":0,
			"byteLength":2555640,
			"byteOffset":0,
			"target":34962
		},
		{
			"buffer":0,
			"byteLength":2555640,
			"byteOffset":2555640,
			"target":34962
		},
		{
			"buffer":0,
			"byteLength":1065384,
			"byteOffset":5111280,
			"target":34963
		}
	],
	"buffers":[
		{
			"byteLength":6176664,
			"uri":"rl5.bin"
		}
	]
}
