{
	"asset":{
		"generator":"Khronos glTF Blender I/O v4.5.49",
		"version":"2.0"
	},
	"scene":0,
	"scenes":[
		{
			"name":"Scene",
			"nodes":[
				0
			]
		}
	],
	"nodes":[
		{
			"mesh":0,
			"name":"rl6"
		}
	],
	"meshes":[
		{
			"name":"rl6",
			"primitives":[
				{
					"attributes":{
						"POSITION":0,
						"NORMAL":1
					},
					"indices":2
				}
			]
		}
	],
	"accessors":[
		{
			"bufferView":0,
			"componentType":5126,
			"count":23674,
			"max":[
				87.5,
				2.5,
				52.5
			],
			"min":[
				-39.5,
				-30.5,
				-27.5
			],
			"type":"VEC3"
		},
		{
			"bufferView":1,
			"componentType":5126,
			"count":23674,
			"type":"VEC3"
		},
		{
			"bufferView":2,
			"componentType":5123,
			"count":36276,
			"type":"SCALAR"
		}
	],
	"bufferViews":[
		{
			"buffer":0,
			"byteLength":284088,
			"byteOffset":0,
			"target":34962
		},
		{
			"buffer":0,
			"byteLength":284088,
			"byteOffset":284088,
			"target":34962
		},
		{
			"buffer":0,
			"byteLength":72552,
			"byteOffset":568176,
			"target":34963
		}
	],
	"buffers":[
		{
			"byteLength":640728,
			"uri":"rl6.bin"
		}
	]
}
